<svg width="48" height="48" viewBox="0 0 48 48" fill="none" xmlns="http://www.w3.org/2000/svg" xmlns:xlink="http://www.w3.org/1999/xlink">
<path d="M16.19,14.694L17.492,16.212L17.492,16.212L16.19,14.694ZM31.809,14.694L30.508,16.212L30.508,16.212L31.809,14.694ZM33.809,16.408L35.111,14.89L35.111,14.89L33.809,16.408ZM14.19,16.408L12.889,14.89L12.889,14.89L14.19,16.408ZM36,25.519L36,34L40,34L40,25.519L36,25.519ZM30,40L18,40L18,44L30,44L30,40ZM12,34L12,25.519L8,25.519L8,34L12,34ZM15.492,17.927L17.492,16.212L14.889,13.175L12.889,14.89L15.492,17.927ZM30.508,16.212L32.508,17.927L35.111,14.89L33.111,13.175L30.508,16.212ZM17.492,16.212C19.395,14.582 20.683,13.483 21.763,12.769C22.796,12.087 23.431,11.902 24,11.902L24,7.902C22.35,7.902 20.943,8.517 19.558,9.431C18.22,10.315 16.713,11.612 14.889,13.175L17.492,16.212ZM33.111,13.175C31.287,11.612 29.78,10.315 28.442,9.431C27.057,8.517 25.65,7.902 24,7.902L24,11.902C24.569,11.902 25.204,12.087 26.237,12.769C27.317,13.483 28.605,14.582 30.508,16.212L33.111,13.175ZM18,40C16.058,40 14.802,39.996 13.877,39.871C13.01,39.755 12.738,39.566 12.586,39.414L9.757,42.243C10.777,43.262 12.033,43.659 13.344,43.836C14.598,44.004 16.171,44 18,44L18,40ZM8,34C8,35.829 7.996,37.402 8.164,38.656C8.341,39.967 8.738,41.223 9.757,42.243L12.586,39.414C12.434,39.262 12.245,38.99 12.129,38.123C12.004,37.198 12,35.942 12,34L8,34ZM36,34C36,35.942 35.996,37.198 35.871,38.123C35.755,38.99 35.566,39.262 35.414,39.414L38.243,42.243C39.262,41.223 39.659,39.967 39.836,38.656C40.004,37.402 40,35.829 40,34L36,34ZM30,44C31.829,44 33.402,44.004 34.656,43.836C35.967,43.659 37.223,43.262 38.243,42.243L35.414,39.414C35.262,39.566 34.99,39.755 34.123,39.871C33.198,39.996 31.942,40 30,40L30,44ZM40,25.519C40,22.987 40.043,21.101 39.268,19.417L35.634,21.088C35.957,21.791 36,22.621 36,25.519L40,25.519ZM32.508,17.927C34.709,19.813 35.311,20.386 35.634,21.088L39.268,19.417C38.493,17.732 37.034,16.538 35.111,14.89L32.508,17.927ZM12,25.519C12,22.621 12.043,21.791 12.366,21.088L8.732,19.417C7.957,21.101 8,22.987 8,25.519L12,25.519ZM12.889,14.89C10.966,16.538 9.507,17.732 8.732,19.417L12.366,21.088C12.689,20.386 13.291,19.813 15.492,17.927L12.889,14.89Z" fill="#33363F"/>
<path d="M27,42C27,43.105 27.895,44 29,44C30.105,44 31,43.105 31,42L27,42ZM17,42C17,43.105 17.895,44 19,44C20.105,44 21,43.105 21,42L17,42ZM21,32L27,32L27,28L21,28L21,32ZM27,32L27,42L31,42L31,32L27,32ZM17,32L17,42L21,42L21,32L17,32ZM27,32L31,32C31,29.791 29.209,28 27,28L27,32ZM21,28C18.791,28 17,29.791 17,32L21,32L21,28Z" fill="#33363F"/>
</svg>
