<svg width="44" height="40" viewBox="0 0 44 40" fill="none" xmlns="http://www.w3.org/2000/svg" xmlns:xlink="http://www.w3.org/1999/xlink">
<path d="M41.161,17.574L42.852,16.506L42.852,16.506L41.161,17.574ZM19.193,3.206C18.101,3.368 17.346,4.384 17.507,5.477C17.669,6.57 18.686,7.325 19.778,7.163L19.193,3.206ZM41.158,20.431L42.849,21.499L42.849,21.499L41.158,20.431ZM36.9,22.877C36.191,23.724 36.302,24.985 37.149,25.694C37.996,26.403 39.257,26.292 39.967,25.445L36.9,22.877ZM41.646,18.553L39.697,19L39.697,19L41.646,18.553ZM41.646,19.447L43.596,19.894L43.596,19.894L41.646,19.447ZM2.84,20.426L4.531,19.358L4.531,19.358L2.84,20.426ZM2.842,17.571L1.151,16.502L1.151,16.502L2.842,17.571ZM12.571,10.085C13.486,9.465 13.724,8.221 13.104,7.307C12.484,6.393 11.24,6.155 10.326,6.775L12.571,10.085ZM33.703,31.207C34.616,30.586 34.853,29.342 34.231,28.428C33.61,27.515 32.366,27.278 31.453,27.899L33.703,31.207ZM2.355,19.447L4.305,19L4.305,19L2.355,19.447ZM2.355,18.553L0.406,18.106L0.406,18.106L2.355,18.553ZM5.415,-0.414C4.634,-1.195 3.368,-1.195 2.587,-0.414C1.806,0.367 1.806,1.633 2.587,2.414L5.415,-0.414ZM38.587,38.414C39.368,39.195 40.634,39.195 41.415,38.414C42.196,37.633 42.196,36.367 41.415,35.586L38.587,38.414ZM19.172,16.172C19.953,15.391 19.953,14.124 19.172,13.343C18.391,12.562 17.125,12.562 16.344,13.343L19.172,16.172ZM27.658,24.657C28.439,23.876 28.439,22.609 27.658,21.828C26.877,21.047 25.61,21.047 24.829,21.828L27.658,24.657ZM22.001,7C26.487,7 30.277,8.975 33.284,11.486C36.297,14 38.405,16.955 39.47,18.642L42.852,16.506C41.667,14.629 39.3,11.296 35.847,8.415C32.39,5.529 27.724,3 22.001,3L22.001,7ZM19.778,7.163C20.496,7.057 21.237,7 22.001,7L22.001,3C21.037,3 20.101,3.072 19.193,3.206L19.778,7.163ZM39.468,19.363C38.905,20.253 38.042,21.512 36.9,22.877L39.967,25.445C41.247,23.916 42.213,22.507 42.849,21.499L39.468,19.363ZM39.47,18.642C39.541,18.754 39.591,18.832 39.632,18.9C39.672,18.966 39.692,19.002 39.703,19.023C39.712,19.04 39.71,19.038 39.705,19.025C39.703,19.019 39.701,19.013 39.699,19.007C39.697,19.002 39.697,18.999 39.697,19L43.596,18.107C43.431,17.386 43.093,16.886 42.852,16.506L39.47,18.642ZM42.849,21.499C43.09,21.118 43.43,20.616 43.596,19.894L39.697,19C39.697,19.001 39.697,18.998 39.699,18.992C39.701,18.987 39.703,18.98 39.705,18.974C39.71,18.961 39.712,18.96 39.702,18.978C39.692,18.999 39.671,19.035 39.631,19.102C39.589,19.171 39.539,19.25 39.468,19.363L42.849,21.499ZM39.697,19C39.691,18.977 39.689,18.961 39.688,18.955C39.687,18.948 39.687,18.947 39.687,18.951C39.688,18.954 39.688,18.961 39.689,18.97C39.689,18.979 39.689,18.989 39.689,19C39.689,19.011 39.689,19.021 39.689,19.03C39.688,19.039 39.688,19.046 39.687,19.049C39.687,19.053 39.687,19.052 39.688,19.045C39.689,19.039 39.691,19.024 39.697,19L43.596,19.894C43.72,19.35 43.72,18.651 43.596,18.107L39.697,19ZM22.001,31C17.514,31 13.725,29.025 10.717,26.514C7.705,24 5.597,21.045 4.531,19.358L1.149,21.494C2.335,23.371 4.702,26.704 8.154,29.585C11.612,32.471 16.277,35 22.001,35L22.001,31ZM4.533,18.639C5.816,16.607 8.576,12.795 12.571,10.085L10.326,6.775C5.673,9.931 2.561,14.27 1.151,16.502L4.533,18.639ZM31.453,27.899C28.783,29.716 25.622,31 22.001,31L22.001,35C26.614,35 30.545,33.355 33.703,31.207L31.453,27.899ZM4.531,19.358C4.461,19.246 4.411,19.168 4.37,19.1C4.33,19.034 4.31,18.998 4.299,18.977C4.29,18.96 4.292,18.962 4.297,18.975C4.299,18.981 4.301,18.987 4.303,18.993C4.305,18.998 4.305,19.001 4.305,19L0.406,19.893C0.571,20.614 0.909,21.114 1.149,21.494L4.531,19.358ZM1.151,16.502C0.911,16.883 0.571,17.385 0.406,18.106L4.305,19C4.305,18.999 4.304,19.002 4.303,19.007C4.301,19.013 4.299,19.019 4.297,19.025C4.292,19.038 4.29,19.04 4.299,19.022C4.31,19.002 4.33,18.965 4.371,18.898C4.412,18.83 4.462,18.751 4.533,18.639L1.151,16.502ZM4.305,19C4.31,19.024 4.313,19.039 4.314,19.045C4.315,19.052 4.315,19.053 4.314,19.049C4.314,19.046 4.314,19.039 4.313,19.03C4.313,19.021 4.313,19.011 4.313,19C4.313,18.989 4.313,18.979 4.313,18.97C4.314,18.961 4.314,18.954 4.314,18.951C4.315,18.947 4.315,18.948 4.314,18.955C4.313,18.961 4.31,18.976 4.305,19L0.406,18.106C0.281,18.65 0.281,19.35 0.406,19.893L4.305,19ZM2.587,2.414L38.587,38.414L41.415,35.586L5.415,-0.414L2.587,2.414ZM22.001,23C19.792,23 18.001,21.209 18.001,19L14.001,19C14.001,23.418 17.583,27 22.001,27L22.001,23ZM18.001,19C18.001,17.895 18.446,16.898 19.172,16.172L16.344,13.343C14.898,14.789 14.001,16.791 14.001,19L18.001,19ZM24.829,21.828C24.103,22.554 23.106,23 22.001,23L22.001,27C24.21,27 26.212,26.102 27.658,24.657L24.829,21.828Z" fill="#9A9A9A"/>
</svg>
