<svg width="48" height="48" viewBox="0 0 48 48" fill="none" xmlns="http://www.w3.org/2000/svg" xmlns:xlink="http://www.w3.org/1999/xlink">
<path d="M19.5,39C19.5,39.828 18.828,40.5 18,40.5L18,43.5C20.485,43.5 22.5,41.485 22.5,39L19.5,39ZM18,40.5C17.172,40.5 16.5,39.828 16.5,39L13.5,39C13.5,41.485 15.515,43.5 18,43.5L18,40.5ZM16.5,39C16.5,38.172 17.172,37.5 18,37.5L18,34.5C15.515,34.5 13.5,36.515 13.5,39L16.5,39ZM18,37.5C18.828,37.5 19.5,38.172 19.5,39L22.5,39C22.5,36.515 20.485,34.5 18,34.5L18,37.5Z" fill="#1B1B1B"/>
<path d="M33.5,39C33.5,39.828 32.828,40.5 32,40.5L32,43.5C34.485,43.5 36.5,41.485 36.5,39L33.5,39ZM32,40.5C31.172,40.5 30.5,39.828 30.5,39L27.5,39C27.5,41.485 29.515,43.5 32,43.5L32,40.5ZM30.5,39C30.5,38.172 31.172,37.5 32,37.5L32,34.5C29.515,34.5 27.5,36.515 27.5,39L30.5,39ZM32,37.5C32.828,37.5 33.5,38.172 33.5,39L36.5,39C36.5,36.515 34.485,34.5 32,34.5L32,37.5Z" fill="#1B1B1B"/>
<path d="M11.706,17.616L13.193,17.816L13.193,17.816L11.706,17.616ZM15.616,13.706L15.816,15.193L15.816,15.193L15.616,13.706ZM35.246,13.75L35.457,12.265L35.457,12.265L35.246,13.75ZM38.351,15.091L37.206,16.061L37.206,16.061L38.351,15.091ZM39.163,18.374L37.664,18.338L37.664,18.338L39.163,18.374ZM38.192,25.726L39.671,25.973L39.671,25.973L38.192,25.726ZM37.126,31.11L38.563,31.538L38.563,31.538L37.126,31.11ZM35.826,33.434L36.795,34.578L36.796,34.578L35.826,33.434ZM33.32,34.334L33.135,32.845L33.135,32.845L33.32,34.334ZM15.616,34.294L15.416,35.78L15.416,35.78L15.616,34.294ZM11.706,30.384L13.193,30.184L13.193,30.184L11.706,30.384ZM13,24C13,21.086 13.006,19.203 13.193,17.816L10.22,17.416C10,19.05 10,21.172 10,24L13,24ZM13.193,17.816C13.368,16.516 13.65,16.108 13.879,15.879L11.757,13.757C10.879,14.636 10.439,15.781 10.22,17.416L13.193,17.816ZM13.879,15.879C14.108,15.65 14.516,15.368 15.816,15.193L15.416,12.22C13.781,12.439 12.636,12.879 11.757,13.757L13.879,15.879ZM15.816,15.193C17.203,15.006 19.086,15 22,15L22,12C19.172,12 17.05,12 15.416,12.22L15.816,15.193ZM22,15L27.834,15L27.834,12L22,12L22,15ZM27.834,15C31.215,15 33.427,15.007 35.035,15.235L35.457,12.265C33.588,12 31.122,12 27.834,12L27.834,15ZM35.035,15.235C36.559,15.452 36.984,15.799 37.206,16.061L39.495,14.122C38.597,13.062 37.327,12.531 35.457,12.265L35.035,15.235ZM37.206,16.061C37.428,16.323 37.701,16.8 37.664,18.338L40.663,18.411C40.708,16.522 40.393,15.182 39.495,14.122L37.206,16.061ZM37.664,18.338C37.624,19.962 37.268,22.145 36.712,25.48L39.671,25.973C40.212,22.731 40.617,20.298 40.663,18.411L37.664,18.338ZM36.712,25.48C36.3,27.951 36.032,29.528 35.688,30.682L38.563,31.538C38.973,30.163 39.272,28.366 39.671,25.973L36.712,25.48ZM35.688,30.682C35.369,31.755 35.083,32.097 34.856,32.289L36.796,34.578C37.634,33.867 38.154,32.914 38.563,31.538L35.688,30.682ZM34.857,32.289C34.63,32.481 34.246,32.707 33.135,32.845L33.506,35.822C34.93,35.644 35.956,35.289 36.795,34.578L34.857,32.289ZM33.135,32.845C31.94,32.994 30.34,33 27.834,33L27.834,36C30.261,36 32.082,36 33.506,35.822L33.135,32.845ZM27.834,33L22,33L22,36L27.834,36L27.834,33ZM22,33C19.086,33 17.203,32.994 15.816,32.807L15.416,35.78C17.05,36 19.172,36 22,36L22,33ZM15.816,32.807C14.516,32.632 14.108,32.35 13.879,32.121L11.757,34.243C12.636,35.121 13.782,35.561 15.416,35.78L15.816,32.807ZM13.879,32.121C13.65,31.892 13.368,31.484 13.193,30.184L10.22,30.584C10.439,32.219 10.879,33.364 11.757,34.243L13.879,32.121ZM13.193,30.184C13.006,28.796 13,26.914 13,24L10,24C10,26.828 10,28.95 10.22,30.584L13.193,30.184Z" fill="#1B1B1B"/>
<path d="M10,23C10,23.828 10.672,24.5 11.5,24.5C12.328,24.5 13,23.828 13,23L10,23ZM5,4.5C4.172,4.5 3.5,5.172 3.5,6C3.5,6.828 4.172,7.5 5,7.5L5,4.5ZM13,23L13,10L10,10L10,23L13,23ZM13,10C13,6.962 10.538,4.5 7.5,4.5L7.5,7.5C8.881,7.5 10,8.619 10,10L13,10ZM7.5,4.5L5,4.5L5,7.5L7.5,7.5L7.5,4.5Z" fill="#1B1B1B"/>
</svg>
