<svg width="316" height="144" viewBox="0 0 316 144" fill="none" xmlns="http://www.w3.org/2000/svg" xmlns:xlink="http://www.w3.org/1999/xlink">
<path d="M10.582,60.513C12.758,61.196 15.062,61.537 17.494,61.537C21.462,61.537 24.747,61.025 27.35,60.001C29.952,58.977 32,57.59 33.494,55.841C35.03,54.134 36.139,52.257 36.822,50.209C37.398,48.58 37.813,46.951 38.066,45.323C38.651,45.777 39.346,46.168 40.15,46.497C41.088,46.838 42.219,47.009 43.542,47.009C45.248,47.009 46.678,46.796 47.83,46.369C49.024,45.9 50.048,45.196 50.902,44.257C51.193,43.922 51.474,43.555 51.746,43.155C51.783,43.247 51.822,43.336 51.862,43.425C52.288,44.236 52.864,44.918 53.59,45.473C54.358,45.985 55.275,46.369 56.342,46.625C57.451,46.881 58.752,47.009 60.246,47.009C61.867,47.009 63.36,46.817 64.726,46.433C66.134,46.006 67.35,45.324 68.374,44.385C69.398,43.446 70.187,42.23 70.742,40.737C71.339,39.244 71.638,37.409 71.638,35.233C71.638,33.953 71.467,32.46 71.126,30.753C70.784,29.046 70.358,27.318 69.846,25.569C69.376,23.82 68.864,22.262 68.31,20.897L63.126,22.817C63.766,24.438 64.363,26.081 64.918,27.745C65.472,29.409 65.92,30.988 66.262,32.481C66.603,33.932 66.774,35.19 66.774,36.257C66.774,37.964 66.496,39.222 65.942,40.033C65.43,40.801 64.683,41.292 63.702,41.505C62.763,41.676 61.632,41.761 60.31,41.761C58.646,41.761 57.387,41.612 56.534,41.313C55.723,41.014 55.168,40.609 54.87,40.097C54.614,39.542 54.486,38.966 54.486,38.369C54.486,37.644 54.55,36.748 54.678,35.681L55.19,32.353C55.36,31.244 55.51,30.305 55.638,29.537L50.774,28.641C50.39,31.756 49.963,34.209 49.494,36.001C49.067,37.793 48.555,39.094 47.958,39.905C47.403,40.716 46.784,41.228 46.102,41.441C45.462,41.654 44.715,41.761 43.862,41.761C42.795,41.761 41.835,41.654 40.982,41.441C40.171,41.185 39.446,40.694 38.806,39.969C38.208,39.201 37.675,38.028 37.206,36.449C37.078,35.98 36.928,35.446 36.758,34.849C36.63,34.252 36.438,33.462 36.182,32.481C35.926,31.457 35.563,30.134 35.094,28.513L29.91,29.921C30.422,31.585 30.891,33.228 31.318,34.849C31.787,36.428 32.15,38.049 32.406,39.713C32.704,41.377 32.854,43.148 32.854,45.025C32.854,46.39 32.598,47.734 32.086,49.057C31.616,50.38 30.806,51.574 29.654,52.641C28.502,53.75 26.944,54.625 24.982,55.265C23.019,55.948 20.587,56.289 17.686,56.289C15.296,56.289 13.099,55.905 11.094,55.137C9.131,54.412 7.552,53.302 6.358,51.809C5.206,50.316 4.63,48.481 4.63,46.305C4.63,45.452 4.694,44.556 4.822,43.617C4.992,42.678 5.227,41.676 5.526,40.609C5.867,39.542 6.251,38.412 6.678,37.217L2.07,35.425C1.472,36.918 0.96,38.348 0.534,39.713C0.15,41.036 -0.149,42.294 -0.362,43.489C-0.533,44.641 -0.618,45.729 -0.618,46.753C-0.618,49.1 -0.149,51.169 0.79,52.961C1.771,54.796 3.094,56.353 4.758,57.633C6.464,58.913 8.406,59.873 10.582,60.513ZM85.589,45.857C87.423,46.625 90.047,47.009 93.461,47.009C93.461,47.009 93.461,47.009 93.462,47.009C94.87,47.009 96.107,46.881 97.174,46.625C98.24,46.369 99.264,45.793 100.246,44.897C101.27,43.958 102.336,42.508 103.446,40.545C104.47,42.038 105.664,43.34 107.03,44.449C108.395,45.558 109.803,46.412 111.254,47.009C112.747,47.606 114.198,47.905 115.606,47.905C116.715,47.905 117.76,47.692 118.742,47.265C119.723,46.881 120.598,46.284 121.366,45.473C121.826,44.988 122.232,44.427 122.583,43.79C123.485,44.864 124.572,45.66 125.846,46.177C127.254,46.732 128.79,47.009 130.454,47.009C130.456,47.009 130.459,47.009 130.462,47.009C133.15,47.009 135.454,46.796 137.374,46.369C139.336,45.942 140.936,45.26 142.174,44.321C143.411,43.382 144.307,42.166 144.862,40.673C145.459,39.18 145.758,37.366 145.758,35.233C145.758,33.953 145.587,32.46 145.246,30.753C144.904,29.046 144.478,27.318 143.966,25.569C143.496,23.82 142.984,22.262 142.43,20.897L137.246,22.817C137.886,24.438 138.483,26.081 139.038,27.745C139.592,29.409 140.04,30.988 140.382,32.481C140.723,33.932 140.894,35.19 140.894,36.257C140.894,37.964 140.595,39.222 139.998,40.033C139.4,40.801 138.398,41.292 136.99,41.505C135.582,41.676 133.619,41.761 131.102,41.761C131.099,41.761 131.096,41.761 131.094,41.761C129.984,41.761 128.982,41.59 128.086,41.249C127.232,40.865 126.4,40.097 125.59,38.945C124.822,37.75 123.947,35.98 122.966,33.633C121.942,31.073 120.939,29.068 119.958,27.617C118.976,26.124 117.931,25.078 116.822,24.481C115.712,23.841 114.454,23.521 113.046,23.521C112.278,23.521 111.446,23.67 110.55,23.969C109.654,24.268 108.694,24.801 107.67,25.569C106.688,26.294 105.664,27.318 104.598,28.641C103.574,29.921 102.55,31.585 101.526,33.633C100.502,35.638 99.648,37.238 98.966,38.433C98.326,39.628 97.643,40.481 96.918,40.993C96.235,41.505 95.296,41.761 94.102,41.761C94.101,41.761 94.101,41.761 94.101,41.761C91.669,41.761 89.877,41.548 88.725,41.121C87.615,40.694 86.89,39.926 86.549,38.817C86.25,37.665 86.058,36.044 85.973,33.953L84.693,0.993L79.445,0.993L80.725,36.001C80.81,38.561 81.194,40.652 81.877,42.273C82.559,43.894 83.797,45.089 85.589,45.857ZM108.182,38.817C107.371,37.921 106.603,36.876 105.878,35.681C106.774,33.889 107.606,32.481 108.374,31.457C109.184,30.433 109.931,29.708 110.614,29.281C111.339,28.854 112.022,28.641 112.662,28.641C113.387,28.641 114.048,28.876 114.646,29.345C115.243,29.772 115.776,30.39 116.246,31.201C116.715,31.969 117.142,32.822 117.526,33.761C117.952,34.7 118.358,35.66 118.742,36.641C119.51,38.561 119.531,40.054 118.806,41.121C118.123,42.188 117.035,42.721 115.542,42.721C114.859,42.721 114.091,42.593 113.238,42.337C112.427,42.038 111.595,41.612 110.742,41.057C109.888,40.46 109.035,39.713 108.182,38.817ZM142.11,13.345C142.75,13.942 143.518,14.241 144.414,14.241C145.267,14.241 145.992,13.942 146.59,13.345C147.23,12.705 147.55,11.958 147.55,11.105C147.55,10.252 147.23,9.505 146.59,8.865C145.992,8.225 145.267,7.905 144.414,7.905C143.518,7.905 142.75,8.225 142.11,8.865C141.512,9.505 141.214,10.252 141.214,11.105C141.214,11.958 141.512,12.705 142.11,13.345ZM133.342,13.345C133.982,13.942 134.75,14.241 135.646,14.241C136.499,14.241 137.224,13.942 137.822,13.345C138.462,12.705 138.782,11.958 138.782,11.105C138.782,10.252 138.462,9.505 137.822,8.865C137.224,8.225 136.499,7.905 135.646,7.905C134.75,7.905 133.982,8.225 133.342,8.865C132.744,9.505 132.446,10.252 132.446,11.105C132.446,11.958 132.744,12.705 133.342,13.345ZM173.82,45.601C175.484,46.326 177.361,46.689 179.452,46.689C181.628,46.689 183.441,46.326 184.892,45.601C186.343,44.833 187.473,43.873 188.284,42.721C189.095,41.526 189.671,40.31 190.012,39.073C190.353,37.836 190.524,36.726 190.524,35.745C190.524,33.228 189.948,30.838 188.796,28.577C187.644,26.316 186.129,24.182 184.252,22.177C182.375,20.172 180.327,18.294 178.108,16.545L174.78,20.513L176.606,22.151C173.798,24.79 171.781,27.316 170.556,29.729C169.148,32.46 168.444,34.742 168.444,36.577C168.444,38.881 168.913,40.78 169.852,42.273C170.833,43.766 172.156,44.876 173.82,45.601ZM179.716,24.745C178.715,25.725 177.817,26.747 177.02,27.809C175.868,29.302 174.993,30.774 174.396,32.225C173.799,33.633 173.5,34.913 173.5,36.065C173.5,37.857 174.055,39.201 175.164,40.097C176.316,40.993 177.745,41.441 179.452,41.441C180.903,41.441 182.097,41.206 183.036,40.737C184.017,40.225 184.743,39.521 185.212,38.625C185.724,37.729 185.98,36.684 185.98,35.489C185.98,34.422 185.788,33.313 185.404,32.161C185.063,30.966 184.337,29.686 183.228,28.321C182.402,27.231 181.232,26.039 179.716,24.745ZM188.299,56.545L190.155,61.409C191.478,61.068 192.971,60.513 194.635,59.745C196.342,58.977 198.027,57.996 199.692,56.801C201.398,55.606 202.956,54.156 204.364,52.449C205.814,50.785 206.966,48.865 207.82,46.689C208.716,44.513 209.164,42.081 209.164,39.393C209.164,37.516 208.8,35.34 208.076,32.865C207.392,30.39 206.24,27.766 204.62,24.993L199.948,27.361C201.1,29.452 201.996,31.201 202.636,32.609C203.276,34.017 203.724,35.276 203.98,36.385C204.236,37.494 204.364,38.646 204.364,39.841C204.364,41.718 203.916,43.681 203.02,45.729C202.166,47.777 200.566,49.74 198.219,51.617C195.915,53.537 192.608,55.18 188.299,56.545ZM224.152,45.857C225.986,46.625 228.61,47.009 232.024,47.009C232.024,47.009 232.024,47.009 232.024,47.009C233.432,47.009 234.67,46.881 235.736,46.625C236.804,46.369 237.828,45.793 238.808,44.897C239.832,43.958 240.9,42.508 242.008,40.545C243.032,42.038 244.228,43.34 245.592,44.449C246.958,45.558 248.366,46.412 249.816,47.009C251.31,47.606 252.76,47.905 254.168,47.905C255.278,47.905 256.324,47.692 257.304,47.265C258.286,46.881 259.16,46.284 259.928,45.473C260.39,44.988 260.794,44.427 261.146,43.79C262.048,44.864 263.136,45.66 264.408,46.177C265.816,46.732 267.352,47.009 269.016,47.009C269.02,47.009 269.022,47.009 269.024,47.009C270.988,47.009 272.694,46.838 274.144,46.497C275.596,46.156 276.832,45.473 277.856,44.449C278.332,43.973 278.774,43.387 279.182,42.691C279.446,43.412 279.792,44.02 280.224,44.513C281.12,45.494 282.166,46.156 283.36,46.497C284.598,46.838 285.75,47.009 286.816,47.009C288.992,47.009 290.742,46.86 292.064,46.561C293.388,46.22 294.496,45.58 295.392,44.641C295.782,44.234 296.162,43.742 296.534,43.166C296.706,43.535 296.9,43.877 297.12,44.193C297.804,45.132 298.784,45.836 300.064,46.305C301.344,46.774 302.988,47.009 304.992,47.009C306.7,47.009 308.236,46.774 309.6,46.305C310.966,45.793 312.118,45.068 313.056,44.129C313.996,43.148 314.72,41.91 315.232,40.417C315.744,38.924 316,37.196 316,35.233C316,33.953 315.83,32.46 315.488,30.753C315.148,29.046 314.72,27.318 314.208,25.569C313.74,23.82 313.228,22.262 312.672,20.897L307.488,22.817C308.428,25.249 309.26,27.702 309.984,30.177C310.752,32.609 311.136,34.636 311.136,36.257C311.136,37.708 310.88,38.838 310.368,39.649C309.9,40.46 309.196,41.014 308.256,41.313C307.36,41.612 306.294,41.761 305.056,41.761C303.392,41.761 302.134,41.612 301.28,41.313C300.47,41.014 299.916,40.609 299.616,40.097C299.36,39.542 299.232,38.966 299.232,38.369C299.232,37.644 299.296,36.748 299.424,35.681L299.936,32.353C300.108,31.244 300.256,30.305 300.384,29.537L295.52,28.641C295.052,31.756 294.604,34.209 294.176,36.001C293.75,37.793 293.26,39.094 292.704,39.905C292.192,40.716 291.532,41.228 290.72,41.441C289.91,41.654 288.864,41.761 287.584,41.761C285.452,41.761 283.98,41.462 283.168,40.865C282.358,40.268 281.952,39.436 281.952,38.369C281.952,37.558 282.038,36.684 282.208,35.745C282.38,34.764 282.572,33.825 282.784,32.929C282.998,31.99 283.19,31.158 283.36,30.433L278.56,29.089C277.878,32.161 277.28,34.55 276.768,36.257C276.256,37.964 275.702,39.222 275.104,40.033C274.55,40.801 273.846,41.292 272.992,41.505C272.14,41.676 271.03,41.761 269.664,41.761C269.662,41.761 269.66,41.761 269.656,41.761C268.548,41.761 267.544,41.59 266.648,41.249C265.796,40.865 264.964,40.097 264.152,38.945C263.384,37.75 262.51,35.98 261.528,33.633C260.504,31.073 259.502,29.068 258.52,27.617C257.54,26.124 256.494,25.078 255.384,24.481C254.276,23.841 253.016,23.521 251.608,23.521C250.84,23.521 250.008,23.67 249.112,23.969C248.216,24.268 247.256,24.801 246.232,25.569C245.252,26.294 244.228,27.318 243.16,28.641C242.136,29.921 241.112,31.585 240.088,33.633C239.064,35.638 238.212,37.238 237.528,38.433C236.888,39.628 236.206,40.481 235.48,40.993C234.798,41.505 233.86,41.761 232.664,41.761C232.664,41.761 232.664,41.761 232.664,41.761C230.232,41.761 228.44,41.548 227.288,41.121C226.178,40.694 225.452,39.926 225.112,38.817C224.812,37.665 224.62,36.044 224.536,33.953L223.256,0.993L218.008,0.993L219.288,36.001C219.372,38.561 219.756,40.652 220.44,42.273C221.122,43.894 222.36,45.089 224.152,45.857ZM246.744,38.817C245.934,37.921 245.166,36.876 244.44,35.681C245.336,33.889 246.168,32.481 246.936,31.457C247.748,30.433 248.494,29.708 249.176,29.281C249.902,28.854 250.584,28.641 251.224,28.641C251.95,28.641 252.612,28.876 253.208,29.345C253.806,29.772 254.34,30.39 254.808,31.201C255.278,31.969 255.704,32.822 256.088,33.761C256.516,34.7 256.92,35.66 257.304,36.641C258.072,38.561 258.094,40.054 257.368,41.121C256.686,42.188 255.598,42.721 254.104,42.721C253.422,42.721 252.654,42.593 251.8,42.337C250.99,42.038 250.158,41.612 249.304,41.057C248.452,40.46 247.598,39.713 246.744,38.817ZM294.304,10.913C294.944,11.51 295.712,11.809 296.608,11.809C297.462,11.809 298.188,11.51 298.784,10.913C299.424,10.273 299.744,9.526 299.744,8.673C299.744,7.82 299.424,7.073 298.784,6.433C298.188,5.793 297.462,5.473 296.608,5.473C295.712,5.473 294.944,5.793 294.304,6.433C293.708,7.073 293.408,7.82 293.408,8.673C293.408,9.526 293.708,10.273 294.304,10.913ZM289.952,17.953C290.592,18.55 291.36,18.849 292.256,18.849C293.11,18.849 293.836,18.55 294.432,17.953C295.072,17.313 295.392,16.566 295.392,15.713C295.392,14.86 295.072,14.113 294.432,13.473C293.836,12.833 293.11,12.513 292.256,12.513C291.36,12.513 290.592,12.833 289.952,13.473C289.356,14.113 289.056,14.86 289.056,15.713C289.056,16.566 289.356,17.313 289.952,17.953ZM298.656,17.953C299.296,18.55 300.064,18.849 300.96,18.849C301.814,18.849 302.54,18.55 303.136,17.953C303.776,17.313 304.096,16.566 304.096,15.713C304.096,14.86 303.776,14.113 303.136,13.473C302.54,12.833 301.814,12.513 300.96,12.513C300.064,12.513 299.296,12.833 298.656,13.473C298.06,14.113 297.76,14.86 297.76,15.713C297.76,16.566 298.06,17.313 298.656,17.953ZM37.274,132.621L37.274,138.78L40.331,138.78L40.331,132.621L46.49,132.621L46.49,129.575L40.331,129.575L40.331,123.416L37.274,123.416L37.274,129.575L31.126,129.575L31.126,132.621L37.274,132.621ZM50.763,140.144L50.763,142.689L66.081,142.689L66.081,139.678L55.604,139.678L55.604,139.507L60.229,134.666C61.645,133.227 62.751,132.003 63.547,130.996C64.342,129.981 64.899,129.06 65.217,128.234C65.543,127.409 65.706,126.564 65.706,125.7C65.706,124.45 65.392,123.329 64.763,122.337C64.134,121.337 63.259,120.549 62.138,119.973C61.024,119.39 59.736,119.098 58.274,119.098C56.827,119.098 55.535,119.394 54.399,119.984C53.263,120.568 52.369,121.39 51.717,122.45C51.066,123.511 50.74,124.75 50.74,126.166L54.092,126.166C54.092,125.333 54.259,124.606 54.592,123.984C54.926,123.363 55.403,122.882 56.024,122.541C56.645,122.2 57.373,122.03 58.206,122.03C58.994,122.03 59.702,122.185 60.331,122.496C60.96,122.799 61.456,123.234 61.82,123.803C62.183,124.363 62.365,125.03 62.365,125.803C62.365,126.484 62.229,127.128 61.956,127.734C61.683,128.341 61.27,128.981 60.717,129.655C60.172,130.322 59.479,131.098 58.638,131.984L50.763,140.144ZM79.217,142.689L79.217,119.416L75.797,119.416L69.99,123.212L69.99,126.575L75.558,122.939L75.695,122.939L75.695,142.689L79.217,142.689ZM96.456,122.598L86.297,142.689L89.967,142.689L100.092,122.53L100.092,119.416L84.706,119.416L84.706,122.428L96.456,122.428L96.456,122.598ZM115.612,122.598L105.453,142.689L109.124,142.689L119.249,122.53L119.249,119.416L103.862,119.416L103.862,122.428L115.612,122.428L115.612,122.598ZM134.768,122.598L124.609,142.689L128.28,142.689L138.405,122.53L138.405,119.416L123.018,119.416L123.018,122.428L134.768,122.428L134.768,122.598ZM151.186,142.689L151.186,119.416L147.766,119.416L141.959,123.212L141.959,126.575L147.527,122.939L147.663,122.939L147.663,142.689L151.186,142.689ZM157.481,140.144L157.481,142.689L172.8,142.689L172.8,139.678L162.322,139.678L162.322,139.507L166.947,134.666C168.364,133.227 169.47,132.003 170.266,130.996C171.061,129.981 171.618,129.06 171.936,128.234C172.262,127.409 172.425,126.564 172.425,125.7C172.425,124.45 172.11,123.329 171.481,122.337C170.853,121.337 169.978,120.549 168.856,119.973C167.743,119.39 166.455,119.098 164.993,119.098C163.546,119.098 162.254,119.394 161.118,119.984C159.981,120.568 159.088,121.39 158.436,122.45C157.785,123.511 157.459,124.75 157.459,126.166L160.811,126.166C160.811,125.333 160.978,124.606 161.311,123.984C161.644,123.363 162.122,122.882 162.743,122.541C163.364,122.2 164.091,122.03 164.925,122.03C165.713,122.03 166.421,122.185 167.05,122.496C167.678,122.799 168.175,123.234 168.538,123.803C168.902,124.363 169.084,125.03 169.084,125.803C169.084,126.484 168.947,127.128 168.675,127.734C168.402,128.341 167.989,128.981 167.436,129.655C166.891,130.322 166.197,131.098 165.356,131.984L157.481,140.144ZM181.027,142.2C182.254,142.738 183.648,143.007 185.209,143.007C186.8,143.007 188.213,142.719 189.447,142.144C190.682,141.56 191.656,140.761 192.368,139.746C193.088,138.731 193.444,137.583 193.436,136.303C193.444,134.833 193.019,133.602 192.163,132.609C191.315,131.617 190.118,131.003 188.572,130.769L188.572,130.587C189.785,130.276 190.754,129.666 191.481,128.757C192.216,127.848 192.58,126.742 192.572,125.439C192.58,124.295 192.285,123.242 191.686,122.28C191.095,121.318 190.254,120.549 189.163,119.973C188.08,119.39 186.792,119.098 185.3,119.098C183.875,119.098 182.58,119.367 181.413,119.905C180.247,120.443 179.307,121.189 178.595,122.144C177.891,123.098 177.519,124.204 177.481,125.462L180.879,125.462C180.91,124.75 181.129,124.14 181.538,123.632C181.947,123.117 182.478,122.723 183.129,122.45C183.788,122.17 184.497,122.03 185.254,122.03C186.05,122.03 186.739,122.181 187.322,122.484C187.913,122.787 188.368,123.208 188.686,123.746C189.012,124.276 189.175,124.901 189.175,125.621C189.175,126.371 188.989,127.026 188.618,127.587C188.247,128.14 187.731,128.572 187.072,128.882C186.421,129.193 185.663,129.348 184.8,129.348L182.834,129.348L182.834,132.212L184.8,132.212C185.875,132.212 186.792,132.382 187.55,132.723C188.315,133.064 188.894,133.534 189.288,134.132C189.69,134.723 189.891,135.409 189.891,136.189C189.891,136.939 189.69,137.602 189.288,138.178C188.887,138.746 188.33,139.189 187.618,139.507C186.913,139.825 186.103,139.984 185.186,139.984C184.353,139.984 183.595,139.848 182.913,139.575C182.231,139.303 181.678,138.916 181.254,138.416C180.838,137.909 180.606,137.31 180.561,136.621L176.993,136.621C177.046,137.886 177.425,139 178.129,139.962C178.841,140.916 179.807,141.662 181.027,142.2ZM197.243,135.303L197.243,138.144L208.278,138.144L208.278,142.689L211.63,142.689L211.63,138.144L214.71,138.144L214.71,135.166L211.63,135.166L211.63,119.416L209.538,119.416L208.3,119.416L207.3,119.416L197.243,135.303ZM208.3,123.598L208.118,123.598L200.926,134.984L200.926,135.166L208.3,135.166L208.3,123.598ZM222.51,142.189C223.646,142.734 224.926,143.007 226.352,143.007C227.912,143.007 229.294,142.67 230.498,141.996C231.712,141.314 232.658,140.382 233.34,139.2C234.03,138.019 234.37,136.674 234.362,135.166C234.37,133.659 234.052,132.325 233.408,131.166C232.772,130 231.896,129.079 230.784,128.405C229.676,127.731 228.416,127.394 226.998,127.394C226.136,127.394 225.324,127.541 224.568,127.837C223.818,128.132 223.214,128.5 222.76,128.939L222.624,128.939L223.362,122.428L233.238,122.428L233.238,119.416L220.442,119.416L219.136,131.144L222.352,131.621C222.79,131.227 223.366,130.909 224.078,130.666C224.79,130.424 225.498,130.303 226.204,130.303C227.128,130.31 227.946,130.526 228.658,130.95C229.378,131.375 229.942,131.958 230.352,132.7C230.76,133.443 230.964,134.287 230.964,135.234C230.964,136.166 230.764,136.996 230.362,137.723C229.968,138.45 229.424,139.022 228.726,139.439C228.036,139.848 227.246,140.053 226.352,140.053C225.23,140.053 224.268,139.731 223.464,139.087C222.662,138.443 222.218,137.621 222.136,136.621L218.726,136.621C218.772,137.856 219.132,138.954 219.806,139.916C220.48,140.878 221.382,141.636 222.51,142.189Z" clip-rule="evenodd" fill-rule="evenodd" fill="#F2EFE9"/>
</svg>
