<svg width="270" height="152" viewBox="0 0 270 152" fill="none" xmlns="http://www.w3.org/2000/svg" xmlns:xlink="http://www.w3.org/1999/xlink">
<path d="M133.718,68.308C135.894,68.991 138.198,69.332 140.63,69.332C144.598,69.332 147.884,68.82 150.486,67.796C153.089,66.772 155.137,65.386 156.63,63.636C158.166,61.93 159.276,60.052 159.958,58.004C160.535,56.375 160.95,54.747 161.203,53.118C161.788,53.572 162.482,53.963 163.286,54.292C164.225,54.634 165.356,54.804 166.678,54.804C168.385,54.804 169.814,54.591 170.966,54.164C172.161,53.695 173.185,52.991 174.038,52.052C174.33,51.717 174.611,51.35 174.882,50.95C174.92,51.042 174.959,51.132 174.998,51.22C175.425,52.031 176.001,52.714 176.726,53.268C177.494,53.78 178.412,54.164 179.478,54.42C180.588,54.676 181.889,54.804 183.382,54.804C185.004,54.804 186.497,54.612 187.862,54.228C189.27,53.802 190.486,53.119 191.51,52.18C192.534,51.242 193.324,50.026 193.878,48.532C194.476,47.039 194.774,45.204 194.774,43.028C194.774,41.748 194.604,40.255 194.262,38.548C193.921,36.842 193.494,35.114 192.982,33.364C192.513,31.615 192.001,30.058 191.446,28.692L186.262,30.612C186.902,32.234 187.5,33.876 188.054,35.54C188.609,37.204 189.057,38.783 189.398,40.276C189.74,41.727 189.91,42.986 189.91,44.052C189.91,45.759 189.633,47.018 189.078,47.828C188.566,48.596 187.82,49.087 186.838,49.3C185.9,49.471 184.769,49.556 183.446,49.556C181.782,49.556 180.524,49.407 179.67,49.108C178.86,48.81 178.305,48.404 178.006,47.892C177.75,47.338 177.622,46.762 177.622,46.164C177.622,45.439 177.686,44.543 177.814,43.476L178.326,40.148C178.497,39.039 178.646,38.1 178.774,37.332L173.91,36.436C173.526,39.551 173.1,42.004 172.63,43.796C172.204,45.588 171.692,46.89 171.094,47.7C170.54,48.511 169.921,49.023 169.238,49.236C168.598,49.45 167.852,49.556 166.998,49.556C165.932,49.556 164.972,49.45 164.118,49.236C163.308,48.98 162.582,48.49 161.942,47.764C161.345,46.996 160.812,45.823 160.342,44.244C160.214,43.775 160.065,43.242 159.894,42.644C159.766,42.047 159.574,41.258 159.318,40.276C159.062,39.252 158.7,37.93 158.23,36.308L153.046,37.716C153.558,39.38 154.028,41.023 154.454,42.644C154.924,44.223 155.286,45.844 155.542,47.508C155.841,49.172 155.99,50.943 155.99,52.82C155.99,54.186 155.734,55.53 155.222,56.852C154.753,58.175 153.942,59.37 152.79,60.436C151.638,61.546 150.081,62.42 148.118,63.06C146.156,63.743 143.724,64.084 140.822,64.084C138.433,64.084 136.236,63.7 134.23,62.932C132.268,62.207 130.689,61.098 129.494,59.604C128.342,58.111 127.766,56.276 127.766,54.1C127.766,53.247 127.83,52.351 127.958,51.412C128.129,50.474 128.364,49.471 128.662,48.404C129.004,47.338 129.388,46.207 129.814,45.012L125.206,43.22C124.609,44.714 124.097,46.143 123.67,47.508C123.286,48.831 122.988,50.09 122.774,51.284C122.604,52.436 122.518,53.524 122.518,54.548C122.518,56.895 122.988,58.964 123.926,60.756C124.908,62.591 126.23,64.148 127.894,65.428C129.601,66.708 131.542,67.668 133.718,68.308ZM196.373,64.34L198.229,69.204C199.552,68.863 201.045,68.308 202.709,67.54C204.415,66.772 206.101,65.791 207.765,64.596C209.471,63.402 211.029,61.951 212.437,60.244C213.887,58.58 215.039,56.66 215.893,54.484C216.789,52.308 217.237,49.876 217.237,47.188C217.237,45.311 216.875,43.135 216.149,40.66C215.467,38.186 214.315,35.562 212.693,32.788L208.021,35.156C209.173,37.247 210.069,38.996 210.709,40.404C211.349,41.812 211.797,43.071 212.053,44.18C212.309,45.29 212.437,46.442 212.437,47.636C212.437,49.514 211.989,51.476 211.093,53.524C210.239,55.572 208.639,57.535 206.293,59.412C203.989,61.332 200.683,62.975 196.373,64.34ZM226.273,47.188L223.713,51.604C224.609,52.287 225.655,52.884 226.849,53.396C228.043,53.866 229.345,54.228 230.753,54.484C232.203,54.74 233.697,54.868 235.233,54.868C238.775,54.868 241.547,54.356 243.553,53.332C245.559,52.308 246.987,51.007 247.841,49.428C248.695,47.807 249.121,46.143 249.121,44.436C249.121,43.071 248.823,41.45 248.225,39.572C247.671,37.652 246.711,35.434 245.345,32.916C244.023,30.399 242.231,27.583 239.969,24.468L235.553,27.348C238.027,30.847 239.863,33.684 241.057,35.86C242.251,37.994 243.019,39.7 243.361,40.98C243.745,42.218 243.937,43.263 243.937,44.116C243.937,45.226 243.639,46.207 243.041,47.06C242.487,47.871 241.569,48.49 240.289,48.916C239.051,49.343 237.367,49.556 235.233,49.556C233.185,49.556 231.393,49.3 229.857,48.788C228.321,48.276 227.127,47.743 226.273,47.188ZM256.581,13.268L257.669,54.484L262.853,54.484L261.765,13.268L256.581,13.268ZM259.973,6.42C260.997,6.847 262.149,7.06 263.429,7.06C264.111,7.06 264.923,6.911 265.861,6.612C266.843,6.271 268.015,5.503 269.381,4.308L267.525,1.684C266.671,2.196 265.947,2.58 265.349,2.836C264.751,3.05 264.111,3.156 263.429,3.156C262.363,3.156 261.359,2.943 260.421,2.516L257.733,1.236C256.837,0.81 255.855,0.596 254.789,0.596C253.595,0.596 252.463,0.959 251.397,1.684C250.331,2.367 249.307,3.327 248.325,4.564L250.757,6.612C251.439,5.93 252.079,5.396 252.677,5.012C253.317,4.628 254.021,4.436 254.789,4.436C255.515,4.436 256.303,4.65 257.157,5.076C258.011,5.503 258.949,5.951 259.973,6.42ZM0.005,142.38C-0.08,142.956 -0.123,143.5 -0.123,144.012C-0.123,145.27 0.112,146.358 0.581,147.276C1.072,148.214 1.744,148.982 2.597,149.58C3.472,150.198 4.475,150.657 5.605,150.956C6.757,151.254 8.005,151.404 9.349,151.404C11.312,151.404 13.04,151.148 14.533,150.636C16.048,150.124 17.328,149.462 18.373,148.652C19.419,147.862 20.208,147.009 20.741,146.092C21.275,145.174 21.541,144.321 21.541,143.532C21.541,142.977 21.349,142.497 20.965,142.092C20.603,141.686 20.123,141.334 19.525,141.036C18.928,140.716 18.288,140.428 17.605,140.172C16.944,139.894 16.315,139.628 15.717,139.372C15.12,139.116 14.629,138.838 14.245,138.54C13.883,138.241 13.701,137.91 13.701,137.548C13.701,137.036 13.861,136.524 14.181,136.012C14.501,135.5 14.917,135.03 15.429,134.604C15.963,134.177 16.539,133.836 17.157,133.58C17.797,133.324 18.427,133.196 19.045,133.196C19.536,133.196 20.005,133.27 20.453,133.42C20.901,133.569 21.307,133.729 21.669,133.9L22.725,131.628C22.448,131.414 21.989,131.19 21.349,130.956C20.709,130.7 19.941,130.572 19.045,130.572C18.043,130.572 17.072,130.796 16.133,131.244C15.195,131.67 14.341,132.246 13.573,132.972C12.827,133.697 12.229,134.497 11.781,135.372C11.355,136.225 11.141,137.089 11.141,137.964C11.141,138.625 11.323,139.201 11.685,139.692C12.048,140.161 12.517,140.566 13.093,140.908C13.669,141.249 14.277,141.548 14.917,141.804C15.557,142.038 16.165,142.262 16.741,142.476C17.317,142.689 17.787,142.913 18.149,143.148C18.512,143.382 18.693,143.649 18.693,143.948C18.693,144.374 18.501,144.865 18.117,145.42C17.755,145.974 17.189,146.508 16.421,147.02C15.653,147.532 14.693,147.948 13.541,148.268C12.389,148.609 11.045,148.78 9.509,148.78C8.528,148.78 7.611,148.673 6.757,148.46C5.904,148.246 5.157,147.926 4.517,147.5C3.877,147.094 3.376,146.582 3.013,145.964C2.672,145.345 2.501,144.62 2.501,143.788C2.501,143.361 2.533,142.913 2.597,142.444C2.683,141.974 2.8,141.473 2.949,140.94C3.12,140.406 3.312,139.841 3.525,139.244L1.221,138.348C0.923,139.094 0.667,139.809 0.453,140.492C0.261,141.153 0.112,141.782 0.005,142.38ZM25.63,140.332L24.35,142.54C24.798,142.881 25.321,143.18 25.918,143.436C26.515,143.67 27.166,143.852 27.87,143.98C28.595,144.108 29.342,144.172 30.11,144.172C31.881,144.172 33.267,143.916 34.27,143.404C35.273,142.892 35.987,142.241 36.414,141.452C36.841,140.641 37.054,139.809 37.054,138.956C37.054,138.273 36.905,137.462 36.606,136.524C36.329,135.564 35.849,134.454 35.166,133.196C34.505,131.937 33.609,130.529 32.478,128.972L30.27,130.412C31.507,132.161 32.425,133.58 33.022,134.668C33.619,135.734 34.003,136.588 34.174,137.228C34.366,137.846 34.462,138.369 34.462,138.796C34.462,139.35 34.313,139.841 34.014,140.268C33.737,140.673 33.278,140.982 32.638,141.196C32.019,141.409 31.177,141.516 30.11,141.516C29.086,141.516 28.19,141.388 27.422,141.132C26.654,140.876 26.057,140.609 25.63,140.332ZM40.784,121.132L41.424,143.98L44.016,143.98L43.376,121.132L40.784,121.132ZM44.492,148.908L45.42,151.34C46.082,151.169 46.828,150.892 47.66,150.508C48.514,150.124 49.356,149.633 50.188,149.036C51.042,148.438 51.82,147.713 52.524,146.86C53.25,146.028 53.826,145.068 54.252,143.98C54.7,142.892 54.924,141.676 54.924,140.332C54.924,139.393 54.743,138.305 54.38,137.068C54.039,135.83 53.463,134.518 52.652,133.132L50.316,134.316C50.892,135.361 51.34,136.236 51.66,136.94C51.98,137.644 52.204,138.273 52.332,138.828C52.46,139.382 52.524,139.958 52.524,140.556C52.524,141.494 52.3,142.476 51.852,143.5C51.426,144.524 50.626,145.505 49.452,146.444C48.3,147.404 46.647,148.225 44.492,148.908ZM49.804,129.004C50.124,129.302 50.508,129.452 50.956,129.452C51.383,129.452 51.746,129.302 52.044,129.004C52.364,128.684 52.524,128.31 52.524,127.884C52.524,127.457 52.364,127.084 52.044,126.764C51.746,126.444 51.383,126.284 50.956,126.284C50.508,126.284 50.124,126.444 49.804,126.764C49.506,127.084 49.356,127.457 49.356,127.884C49.356,128.31 49.506,128.684 49.804,129.004ZM59.346,123.372L59.89,143.98L62.482,143.98L61.938,123.372L59.346,123.372ZM61.042,119.948C61.554,120.161 62.13,120.268 62.77,120.268C63.112,120.268 63.517,120.193 63.986,120.044C64.477,119.873 65.064,119.489 65.746,118.892L64.818,117.58C64.392,117.836 64.029,118.028 63.73,118.156C63.432,118.262 63.112,118.316 62.77,118.316C62.237,118.316 61.736,118.209 61.266,117.996L59.922,117.356C59.474,117.142 58.984,117.036 58.45,117.036C57.853,117.036 57.288,117.217 56.754,117.58C56.221,117.921 55.709,118.401 55.218,119.02L56.434,120.044C56.776,119.702 57.096,119.436 57.394,119.244C57.714,119.052 58.066,118.956 58.45,118.956C58.813,118.956 59.208,119.062 59.634,119.276C60.061,119.489 60.53,119.713 61.042,119.948ZM74.13,142.38C74.045,142.956 74.002,143.5 74.002,144.012C74.002,145.292 74.248,146.39 74.738,147.308C75.229,148.225 75.89,148.982 76.722,149.58C77.576,150.177 78.557,150.614 79.666,150.892C80.797,151.19 81.981,151.34 83.218,151.34C84.797,151.34 86.152,151.148 87.282,150.764C88.434,150.38 89.394,149.857 90.162,149.196C90.952,148.556 91.581,147.82 92.05,146.988C92.52,146.177 92.85,145.334 93.042,144.46C93.256,143.585 93.362,142.732 93.362,141.9C93.362,140.94 93.245,140.001 93.01,139.084C92.797,138.145 92.509,137.238 92.146,136.364C91.805,135.468 91.421,134.614 90.994,133.804L88.594,135.02C89.426,136.726 89.992,138.156 90.29,139.308C90.61,140.46 90.77,141.441 90.77,142.252C90.77,142.998 90.642,143.756 90.386,144.524C90.152,145.292 89.746,145.985 89.17,146.604C88.594,147.244 87.816,147.756 86.834,148.14C85.874,148.524 84.68,148.716 83.25,148.716C81.992,148.716 80.861,148.534 79.858,148.172C78.856,147.809 78.066,147.265 77.49,146.54C76.914,145.814 76.626,144.897 76.626,143.788C76.626,143.361 76.658,142.913 76.722,142.444C76.808,141.974 76.925,141.473 77.074,140.94C77.245,140.406 77.437,139.841 77.65,139.244L75.346,138.348C75.048,139.094 74.792,139.809 74.578,140.492C74.386,141.153 74.237,141.782 74.13,142.38ZM82.514,130.796C82.834,131.094 83.218,131.244 83.666,131.244C84.093,131.244 84.456,131.094 84.754,130.796C85.074,130.476 85.234,130.102 85.234,129.676C85.234,129.249 85.074,128.876 84.754,128.556C84.456,128.236 84.093,128.076 83.666,128.076C83.218,128.076 82.834,128.236 82.514,128.556C82.216,128.876 82.066,129.249 82.066,129.676C82.066,130.102 82.216,130.476 82.514,130.796ZM100.325,143.564C101.242,143.948 102.554,144.14 104.261,144.14C104.261,144.14 104.261,144.14 104.261,144.14C105.221,144.14 106.074,144.076 106.821,143.948C107.568,143.798 108.218,143.585 108.773,143.308C109.349,143.009 109.818,142.636 110.181,142.188C110.544,141.718 110.81,141.164 110.981,140.524C111.173,139.862 111.269,139.105 111.269,138.252C111.269,137.612 111.184,136.865 111.013,136.012C110.842,135.158 110.629,134.294 110.373,133.42C110.138,132.545 109.882,131.766 109.605,131.084L107.013,132.044C107.333,132.854 107.632,133.676 107.909,134.508C108.186,135.34 108.41,136.129 108.581,136.876C108.752,137.601 108.837,138.23 108.837,138.764C108.837,139.553 108.698,140.15 108.421,140.556C108.144,140.94 107.696,141.196 107.077,141.324C106.458,141.452 105.626,141.516 104.581,141.516C104.581,141.516 104.581,141.516 104.581,141.516C103.365,141.516 102.469,141.409 101.893,141.196C101.338,140.982 100.975,140.598 100.805,140.044C100.655,139.468 100.559,138.657 100.517,137.612L99.877,121.132L97.253,121.132L97.893,138.636C97.935,139.916 98.127,140.961 98.469,141.772C98.81,142.582 99.429,143.18 100.325,143.564ZM106.533,149.612C106.853,149.932 107.237,150.092 107.685,150.092C108.112,150.092 108.474,149.932 108.773,149.612C109.093,149.313 109.253,148.95 109.253,148.524C109.253,148.097 109.093,147.724 108.773,147.404C108.474,147.084 108.112,146.924 107.685,146.924C107.237,146.924 106.853,147.084 106.533,147.404C106.234,147.724 106.085,148.097 106.085,148.524C106.085,148.95 106.234,149.313 106.533,149.612ZM118.231,143.564C119.148,143.948 120.46,144.14 122.167,144.14C122.167,144.14 122.167,144.14 122.167,144.14C123.149,144.14 123.991,144.097 124.695,144.012C125.421,143.926 126.039,143.766 126.551,143.532C127.063,143.297 127.511,142.966 127.895,142.54C128.042,142.385 128.185,142.214 128.323,142.026C128.35,142.114 128.378,142.2 128.407,142.284C128.578,142.689 128.855,143.03 129.239,143.308C129.645,143.585 130.231,143.798 130.999,143.948C131.767,144.076 132.802,144.14 134.103,144.14C134.104,144.14 134.104,144.14 134.105,144.14C135.769,144.14 137.23,144.012 138.489,143.756C139.769,143.5 140.9,143.18 141.881,142.796C142.862,142.39 143.758,141.974 144.569,141.548C145.38,141.1 146.148,140.684 146.873,140.3C147.62,139.894 148.377,139.564 149.145,139.308C149.913,139.052 150.756,138.924 151.673,138.924L151.449,136.62L150.777,136.62C150.116,136.62 149.476,136.492 148.857,136.236C148.238,135.958 147.598,135.628 146.937,135.244C146.297,134.86 145.604,134.476 144.857,134.092C144.132,133.708 143.321,133.388 142.425,133.132C141.529,132.854 140.526,132.716 139.417,132.716C138.884,132.716 138.329,132.769 137.753,132.876C137.177,132.961 136.601,133.089 136.025,133.26L136.537,135.692C136.921,135.606 137.262,135.542 137.561,135.5C137.86,135.436 138.158,135.393 138.457,135.372C138.756,135.35 139.076,135.34 139.417,135.34C140.377,135.34 141.284,135.446 142.137,135.66C143.012,135.852 143.812,136.129 144.537,136.492C145.262,136.854 145.902,137.281 146.457,137.772C145.604,138.369 144.697,138.902 143.737,139.372C142.798,139.82 141.817,140.204 140.793,140.524C139.769,140.844 138.724,141.089 137.657,141.26C136.594,141.43 135.511,141.515 134.406,141.516C133.177,141.515 132.234,141.462 131.575,141.356C130.914,141.228 130.445,141.068 130.167,140.876C129.89,140.684 129.73,140.449 129.687,140.172C129.645,139.894 129.623,139.596 129.623,139.276C129.623,138.934 129.655,138.54 129.719,138.092C129.805,137.622 129.901,137.153 130.007,136.684C130.114,136.214 130.21,135.788 130.295,135.404L127.799,134.924C127.522,136.332 127.287,137.473 127.095,138.348C126.903,139.222 126.647,139.894 126.327,140.364C126.029,140.812 125.581,141.121 124.983,141.292C124.386,141.441 123.554,141.516 122.487,141.516C122.487,141.516 122.487,141.516 122.487,141.516C121.271,141.516 120.375,141.409 119.799,141.196C119.244,140.982 118.882,140.598 118.711,140.044C118.562,139.468 118.466,138.657 118.423,137.612L117.783,121.132L115.159,121.132L115.799,138.636C115.842,139.916 116.034,140.961 116.375,141.772C116.716,142.582 117.335,143.18 118.231,143.564ZM129.079,149.708C129.399,150.028 129.783,150.188 130.231,150.188C130.658,150.188 131.021,150.028 131.319,149.708C131.639,149.409 131.799,149.046 131.799,148.62C131.799,148.193 131.639,147.82 131.319,147.5C131.021,147.18 130.658,147.02 130.231,147.02C129.783,147.02 129.399,147.18 129.079,147.5C128.781,147.82 128.631,148.193 128.631,148.62C128.631,149.046 128.781,149.409 129.079,149.708ZM124.695,149.708C125.015,150.028 125.399,150.188 125.847,150.188C126.274,150.188 126.637,150.028 126.935,149.708C127.255,149.409 127.415,149.046 127.415,148.62C127.415,148.193 127.255,147.82 126.935,147.5C126.637,147.18 126.274,147.02 125.847,147.02C125.399,147.02 125.015,147.18 124.695,147.5C124.397,147.82 124.247,148.193 124.247,148.62C124.247,149.046 124.397,149.409 124.695,149.708ZM138.297,128.972C138.617,129.27 139.001,129.42 139.449,129.42C139.876,129.42 140.238,129.27 140.537,128.972C140.857,128.652 141.017,128.278 141.017,127.852C141.017,127.425 140.857,127.052 140.537,126.732C140.238,126.412 139.876,126.252 139.449,126.252C139.001,126.252 138.617,126.412 138.297,126.732C137.998,127.052 137.849,127.425 137.849,127.852C137.849,128.278 137.998,128.652 138.297,128.972ZM165.577,143.948C165.919,144.054 166.228,144.108 166.505,144.108C167.167,144.108 167.647,143.937 167.945,143.596C168.244,143.233 168.393,142.817 168.393,142.348C168.393,142.049 168.276,141.772 168.041,141.516C167.828,141.238 167.476,141.036 166.985,140.908C167.007,140.78 167.081,140.556 167.209,140.236C167.337,139.894 167.497,139.51 167.689,139.084C167.881,138.636 168.084,138.22 168.297,137.836L166.377,136.844C166.079,137.356 165.759,137.921 165.417,138.54C165.097,139.137 164.831,139.734 164.617,140.332C164.404,140.929 164.297,141.484 164.297,141.996C164.297,142.55 164.425,142.988 164.681,143.308C164.937,143.606 165.236,143.82 165.577,143.948ZM173.005,142.38C172.92,142.956 172.877,143.5 172.877,144.012C172.877,145.292 173.123,146.39 173.613,147.308C174.104,148.225 174.765,148.982 175.597,149.58C176.451,150.177 177.432,150.614 178.541,150.892C179.672,151.19 180.856,151.34 182.093,151.34C183.672,151.34 185.027,151.148 186.157,150.764C187.309,150.38 188.269,149.857 189.037,149.196C189.827,148.556 190.456,147.82 190.925,146.988C191.395,146.177 191.725,145.334 191.917,144.46C192.131,143.585 192.237,142.732 192.237,141.9C192.237,140.94 192.12,140.001 191.885,139.084C191.672,138.145 191.384,137.238 191.021,136.364C190.68,135.468 190.296,134.614 189.869,133.804L187.469,135.02C188.301,136.726 188.867,138.156 189.165,139.308C189.485,140.46 189.645,141.441 189.645,142.252C189.645,142.998 189.517,143.756 189.261,144.524C189.027,145.292 188.621,145.985 188.045,146.604C187.469,147.244 186.691,147.756 185.709,148.14C184.749,148.524 183.555,148.716 182.125,148.716C180.867,148.716 179.736,148.534 178.733,148.172C177.731,147.809 176.941,147.265 176.365,146.54C175.789,145.814 175.501,144.897 175.501,143.788C175.501,143.361 175.533,142.913 175.597,142.444C175.683,141.974 175.8,141.473 175.949,140.94C176.12,140.406 176.312,139.841 176.525,139.244L174.221,138.348C173.923,139.094 173.667,139.809 173.453,140.492C173.261,141.153 173.112,141.782 173.005,142.38ZM181.389,130.796C181.709,131.094 182.093,131.244 182.541,131.244C182.968,131.244 183.331,131.094 183.629,130.796C183.949,130.476 184.109,130.102 184.109,129.676C184.109,129.249 183.949,128.876 183.629,128.556C183.331,128.236 182.968,128.076 182.541,128.076C182.093,128.076 181.709,128.236 181.389,128.556C181.091,128.876 180.941,129.249 180.941,129.676C180.941,130.102 181.091,130.476 181.389,130.796ZM196.128,121.132L196.768,143.98L199.36,143.98L198.72,121.132L196.128,121.132ZM203.707,147.212C202.683,147.873 201.393,148.46 199.836,148.972L200.763,151.404C201.639,151.169 202.609,150.774 203.675,150.22C204.743,149.665 205.767,148.95 206.747,148.076C207.729,147.222 208.529,146.209 209.147,145.036C209.541,144.326 209.815,143.568 209.967,142.761C210.239,143.112 210.585,143.411 211.003,143.66C211.601,143.98 212.369,144.14 213.307,144.14C213.313,144.14 213.319,144.14 213.323,144.14C213.835,144.14 214.347,144.108 214.859,144.044C215.255,144.012 215.641,143.969 216.013,143.913C216.137,145.177 216.435,146.266 216.907,147.18C217.547,148.438 218.411,149.377 219.499,149.996C220.587,150.614 221.803,150.924 223.147,150.924C224.085,150.924 224.885,150.753 225.547,150.412C226.209,150.092 226.731,149.654 227.115,149.1C227.521,148.545 227.765,147.926 227.851,147.244C227.957,146.582 227.905,145.91 227.691,145.228C227.565,144.795 227.367,144.38 227.095,143.983C227.293,144.004 227.493,144.024 227.691,144.044C228.351,144.108 228.967,144.14 229.541,144.14C229.543,144.14 229.545,144.14 229.547,144.14L232.901,144.14C234.779,144.14 236.453,144.108 237.925,144.044C239.397,143.98 240.709,143.862 241.863,143.692C243.013,143.521 244.037,143.286 244.933,142.988C246.705,142.412 247.953,141.622 248.677,140.62C249.403,139.596 249.765,138.582 249.765,137.58C249.765,136.556 249.531,135.638 249.061,134.828C248.613,134.017 247.963,133.377 247.109,132.908C246.279,132.417 245.275,132.172 244.101,132.172C242.801,132.172 241.521,132.481 240.261,133.1C239.003,133.697 237.797,134.497 236.645,135.5C236.115,135.961 235.603,136.443 235.109,136.946L234.533,121.132L231.941,121.132L232.549,139.963C232.161,140.485 231.799,141.003 231.463,141.516L229.867,141.516C229.057,141.516 228.277,141.473 227.531,141.388C226.805,141.302 226.091,141.196 225.387,141.068C225.037,140.991 224.685,140.911 224.335,140.829C224.389,140.781 224.441,140.733 224.491,140.684C225.259,139.958 225.781,139.148 226.059,138.252C226.337,137.356 226.475,136.46 226.475,135.564C226.475,134.561 226.315,133.697 225.995,132.972C225.675,132.246 225.237,131.681 224.683,131.276C224.129,130.87 223.499,130.668 222.795,130.668C222.005,130.668 221.205,130.956 220.395,131.532C219.585,132.108 218.837,132.929 218.155,133.996C217.493,135.041 216.961,136.289 216.555,137.74C216.231,138.903 216.035,140.156 215.971,141.497C215.655,141.51 215.327,141.516 214.987,141.516L213.643,141.516C213.639,141.516 213.633,141.516 213.627,141.516C212.795,141.516 212.135,141.356 211.643,141.036C211.175,140.694 210.791,140.065 210.491,139.148C210.343,138.614 210.139,138.028 209.883,137.388C209.649,136.748 209.371,136.065 209.051,135.34C208.753,134.614 208.401,133.878 207.995,133.132L205.659,134.316C206.215,135.276 206.715,136.3 207.163,137.388C207.633,138.454 207.867,139.51 207.867,140.556C207.867,141.281 207.739,142.038 207.483,142.828C207.227,143.596 206.791,144.353 206.171,145.1C205.575,145.846 204.753,146.55 203.707,147.212ZM234.373,141.516L236.549,141.516C238.405,141.516 240.005,141.441 241.349,141.292C242.715,141.121 243.835,140.876 244.709,140.556C245.585,140.236 246.235,139.83 246.661,139.34C247.089,138.828 247.301,138.23 247.301,137.548C247.301,137.185 247.185,136.79 246.949,136.364C246.715,135.937 246.353,135.574 245.863,135.276C245.371,134.956 244.721,134.796 243.909,134.796C242.885,134.796 241.863,135.062 240.837,135.596C239.835,136.129 238.875,136.801 237.957,137.612C237.061,138.401 236.261,139.212 235.557,140.044C235.105,140.578 234.711,141.069 234.373,141.516ZM224.331,148.076C223.969,148.225 223.595,148.3 223.211,148.3C222.763,148.3 222.273,148.225 221.739,148.076C221.205,147.926 220.693,147.628 220.203,147.18C219.713,146.753 219.307,146.113 218.987,145.26C218.805,144.75 218.677,144.136 218.607,143.418C218.823,143.372 219.035,143.335 219.243,143.308C219.563,143.244 219.873,143.201 220.171,143.18C220.491,143.137 220.779,143.116 221.035,143.116C222.251,143.116 223.189,143.254 223.851,143.532C224.513,143.809 224.971,144.161 225.227,144.588C225.505,145.036 225.643,145.526 225.643,146.06C225.643,146.614 225.515,147.052 225.259,147.372C225.025,147.713 224.715,147.948 224.331,148.076ZM218.551,141.281C218.591,140.273 218.727,139.338 218.955,138.476C219.253,137.409 219.617,136.492 220.043,135.724C220.491,134.956 220.939,134.358 221.387,133.932C221.857,133.505 222.251,133.292 222.571,133.292C222.891,133.292 223.147,133.441 223.339,133.74C223.531,134.017 223.659,134.358 223.723,134.764C223.809,135.169 223.851,135.532 223.851,135.852C223.851,136.812 223.713,137.622 223.435,138.284C223.157,138.945 222.763,139.478 222.251,139.884C221.739,140.289 221.141,140.609 220.459,140.844C219.881,141.03 219.245,141.176 218.551,141.281Z" clip-rule="evenodd" fill-rule="evenodd" fill="#F2EFE9"/>
</svg>
