<svg width="20" height="16" viewBox="0 0 20 16" fill="none" xmlns="http://www.w3.org/2000/svg" xmlns:xlink="http://www.w3.org/1999/xlink">
<path d="M19.414,3.414C20.195,2.633 20.195,1.367 19.414,0.586C18.633,-0.195 17.367,-0.195 16.586,0.586L19.414,3.414ZM7,13L5.586,14.414C6.367,15.195 7.633,15.195 8.414,14.414L7,13ZM3.414,6.586C2.633,5.805 1.367,5.805 0.586,6.586C-0.195,7.367 -0.195,8.633 0.586,9.414L3.414,6.586ZM16.586,0.586L5.586,11.586L8.414,14.414L19.414,3.414L16.586,0.586ZM8.414,11.586L3.414,6.586L0.586,9.414L5.586,14.414L8.414,11.586Z" fill="#B0CAD9"/>
</svg>
