<svg width="48" height="48" viewBox="0 0 48 48" fill="none" xmlns="http://www.w3.org/2000/svg" xmlns:xlink="http://www.w3.org/1999/xlink">
<path d="M36,21L38,21L38,18L36,18L36,21ZM38,21C39.657,21 41,22.343 41,24L44,24C44,20.686 41.314,18 38,18L38,21ZM41,24C41,25.657 39.657,27 38,27L38,30C41.314,30 44,27.314 44,24L41,24ZM38,27L36,27L36,30L38,30L38,27ZM36,27C34.343,27 33,25.657 33,24L30,24C30,27.314 32.686,30 36,30L36,27ZM33,24C33,22.343 34.343,21 36,21L36,18C32.686,18 30,20.686 30,24L33,24Z" fill="#1B1B1B"/>
<path d="M20,11L26,11C29.856,11 32.446,11.006 34.378,11.266C36.224,11.514 37.014,11.943 37.536,12.464C38.057,12.986 38.486,13.776 38.734,15.622C38.891,16.794 38.956,18.208 38.982,20L41.983,20C41.911,15.041 41.543,12.229 39.657,10.343C37.314,8 33.542,8 26,8L20,8C12.458,8 8.686,8 6.343,10.343C4,12.686 4,16.458 4,24C4,31.542 4,35.314 6.343,37.657C8.686,40 12.458,40 20,40L26,40C33.542,40 37.314,40 39.657,37.657C41.543,35.771 41.911,32.959 41.983,28L38.982,28C38.956,29.792 38.891,31.206 38.734,32.378C38.486,34.224 38.057,35.014 37.536,35.536C37.014,36.057 36.224,36.486 34.378,36.734C32.446,36.994 29.856,37 26,37L20,37C16.144,37 13.554,36.994 11.622,36.734C9.776,36.486 8.986,36.057 8.464,35.536C7.943,35.014 7.514,34.224 7.266,32.378C7.006,30.446 7,27.856 7,24C7,20.144 7.006,17.554 7.266,15.622C7.514,13.776 7.943,12.986 8.464,12.464C8.986,11.943 9.776,11.514 11.622,11.266C13.554,11.006 16.144,11 20,11Z" fill="#1B1B1B"/>
<line x1="13.5" y1="17" x2="24.5" y2="17" stroke="#1B1B1B" stroke-width="1.5" stroke-miterlimit="3.999327" stroke-linecap="round"/>
</svg>
